# xmcd
# Copyright (C) 1995-1998 Ti Kan
#
# Track frame offsets:
#       150
#       17965
#       33909
#       52643
#       73509
#       92207
#
# Disc length: 1482 seconds
#
# Revision: 0
# Processed by: cddbd v1.5.2PL0 Copyright (c) Steve Scherf et al.
# Submitted via: CD-Import v1.0
#
DISCID=4205c806
DTITLE=lesPatterns - lesPatterns
DYEAR=11
DGENRE=
TTITLE0=Wake Up
TTITLE1=We are going out tonight
TTITLE2=Citoyen du monde
TTITLE3=Jane Song
TTITLE4=70's
TTITLE5=Pretender
EXTD=
EXTT0=
EXTT1=
EXTT2=
EXTT3=
EXTT4=
EXTT5=
PLAYORDER=
